<svg id="kv-ttl.svg" xmlns="http://www.w3.org/2000/svg" width="729.03" height="397.625" viewBox="0 0 729.03 397.625">
  <defs>
    <style>
      .cls-1 {
        fill: #01321a;
        stroke: #01321a;
      }

      .cls-1, .cls-2, .cls-5 {
        stroke-linejoin: round;
      }

      .cls-1, .cls-2 {
        stroke-width: 10px;
      }

      .cls-1, .cls-2, .cls-3, .cls-4, .cls-5, .cls-6 {
        fill-rule: evenodd;
      }

      .cls-2 {
        fill: #fff;
        stroke: #008241;
      }

      .cls-3, .cls-5 {
        fill: #161958;
      }

      .cls-4 {
        fill: #014724;
      }

      .cls-5 {
        stroke: #161958;
        stroke-width: 1px;
      }

      .cls-6 {
        fill: #008241;
      }
    </style>
  </defs>
  <path id="シェイプ_15_のコピー" data-name="シェイプ 15 のコピー" class="cls-1" d="M2545.87,342.765l-423,58.258L2097,564l79-8-23,140,580.08-83.841L2748,485l-40.66,5.992L2714,449l-110.9,16.1,13.27-79.554-82.22,11.324Z" transform="translate(-2025.97 -309.75)"/>
  <path id="シェイプ_15_のコピー-2" data-name="シェイプ 15 のコピー" class="cls-2" d="M2533.87,330.766l-423,58.256L2085,552l79-8-23,140,580.08-83.84L2736,473l-40.66,5.991L2702,437l-110.9,16.1,13.27-79.553-82.22,11.323Z" transform="translate(-2025.97 -309.75)"/>
  <path id="圧倒的" class="cls-3" d="M2116.9,524.085a42.929,42.929,0,0,0,20.85-16.126c6.22-8.731,8.51-18.363,9.43-39.355l1.59-42.213,90.79-12.5,0.78-20.711-111.79,15.4-2.4,63.847c-0.96,15.224-2.54,19.9-8.23,24.624Zm27.64-22.835-0.74,19.524,92.86-12.789,0.74-19.523-36.58,5.037,0.99-26.383,31.56-4.346,0.73-19.523-31.55,4.345,0.93-24.8-22.02,3.033-0.93,24.8-26.15,3.6-0.73,19.524,26.14-3.6-0.99,26.383Zm124.07-113.674c-3.12,14.734-10.4,31.091-18.63,42.066l-1.27,33.9a105.738,105.738,0,0,0,7.57-10.623l-2.09,55.536,19.19-2.643,3.18-84.426c2.69-6.8,3.25-8.191,6.4-16.892l-0.19,5.013,6.05-.834-4.97,16.565-4.25.586-0.67,17.544,14.17-1.951-0.4,10.554-12.1,1.667-0.68,17.941,12.11-1.668-0.41,10.949c-5.17,1.105-6.2,1.247-12.91,2.434l-0.76,20.183a383.745,383.745,0,0,0,44.45-10.059l0.76-20.052c-6.73,1.846-7.9,2.138-13.2,3.393l0.36-9.366,11.2-1.544,0.68-17.94-11.21,1.543,0.4-10.553,2.45-.337c7.22-1.257,10.3-4.963,10.46-12.6l0.29-7.651-3.48-9.625-15.97,2.2,1.84-4.716,17.52-2.412,0.68-17.94-38.38,5.285,2.03-6.316Zm32.36,35.306,3.45-9.923,4.02,8.894Zm25.1,41.294,18.03-2.483,3.15-83.635-18.03,2.484Zm-0.04,14.572-0.72,19.26,21.76-3c14.92-1.53,19.35-6.864,19.85-23.468l3.64-96.694L2350.6,377.6l-3.7,98.278Zm53.59,9.155,33.49-4.612c11.59-1.728,16.02-7.062,15.99-19.787l3.08-81.788-14.17,1.951c1.65-6.395,1.96-7.75,3.81-16.142l-22.02,3.033c-1.33,8.057-1.64,9.412-3.17,16.053l-13.26,1.827Zm20.09-22.976,0.81-21.634,9.92-1.366-0.82,21.634Zm1.49-39.707,0.73-19.259,9.91-1.366-0.72,19.26Zm47.02-61.331c-3.17,16.317-7.26,26.065-14.52,35.334l-1.13,29.813c10.86-9.369,18.81-19.65,24.12-31.405l17.64-2.43c-0.95,25.46-2.41,43.771-3.94,50.412-3.09,10.4-6.64,12.988-21.07,14.974l-6.44.887-0.79,20.975,7.6-1.047c23.06-3.307,29.47-6.682,36.63-20,4.81-8.667,6.69-24.543,8.78-76.667l0.54-10.835-31.81,4.381a119.041,119.041,0,0,0,5.26-17.26Zm20.01,57.349a132.778,132.778,0,0,0-21.29-6.254l-0.76,20.315c7.88,1.671,12.05,3.2,21.24,7.442Z" transform="translate(-2025.97 -309.75)"/>
  <path id="発想転換" class="cls-4" d="M2180.43,554.261L2191,576.295a69.843,69.843,0,0,1-12.28,6.284l-0.75,19.92a138.776,138.776,0,0,0,22.61-11.775l8.76-1.206-0.36,9.366-21.63,2.979-0.67,17.809,21.12-2.909c-1.58,11.241-10.42,18.1-28.11,21.851l-0.8,21.106c30.73-6.2,48.37-22.146,50.67-45.954l13.53-1.863-0.94,24.932c-0.32,8.575,3.68,11.173,14.62,9.666l19.19-2.643c7.99-1.1,12.81-3.339,15.92-7.441l0.78-20.71c-6.65,6.295-8.6,7.221-17.11,8.655l-11.34,1.561,0.64-17.017,20.22-2.785,0.67-17.809-20.22,2.785,0.36-9.366,7.98-1.1c9.77,2.592,14.1,3.308,22.68,3.439l0.76-20.183a53.337,53.337,0,0,1-13.01-1.753l13.08-20.7-20.86,2.873-7.76,12.224-3.52-1.878,16.48-25.891-20.74,2.856-9.37,14.151a56.114,56.114,0,0,1-6.68-6.3l0.33-8.707-41.73,5.747-0.61,16.226-0.59-1.5Zm39.13-1.321a85.762,85.762,0,0,1-11.19,11.252l-4.27-9.123Zm6.01,17.282a82.2,82.2,0,0,0,10.84-12.254c3.94,4.05,6.19,5.709,11.69,9.15Zm18.32,23.855-12.88,1.774,0.35-9.366,12.88-1.774Zm77.02,2.778c-1.47,8.207-6.37,22.661-13.09,37.891l22.54-3.1c6.17-17.516,8.36-24.641,11.15-37.625Zm6.95-48.6c-7.69,10.377-9.57,12.472-16.45,18.276l-0.9,24.008c8.01-5.3,9.48-6.817,19.78-18.208l-0.71,18.732,19.45-2.679,0.85-22.689c6.74,4.846,7.98,5.856,17.15,14.042l0.93-24.669c-4.86-3.529-6.24-4.39-15.89-10.147l16.75-2.306,0.67-17.941-18.16,2.5,0.46-12.268-19.44,2.678-0.47,12.269-17.9,2.465-0.67,17.941Zm18.13,42.648-1.06,28.1c-0.49,12.928,2.01,14.552,19.13,12.589l31.16-4.293c17.78-2.448,23.99-4.222,30.83-8.97l0.81-21.5c-8.59,7.09-10.54,7.883-23.7,10.22l-37.35,5.144,0.91-24.141Zm28.02-77.35-2.66,70.576,37.09-5.109c13.91-1.783,17.23-4.865,17.79-16.36l2.13-56.592Zm16.08,52.64,0.21-5.54,16.74-2.306-0.2,5.541Zm0.61-16.093,0.22-5.937,16.75-2.3-0.23,5.936Zm0.63-16.754,0.22-5.936,16.75-2.306-0.23,5.937Zm-19.92,56.024,5.16,16.087,19.96-2.749-5.16-16.088Zm25.24-3.477,4.91,16.123,20.09-2.767-5.55-16.034Zm41.92,18.414,19.58-2.7-0.66,17.545,19.06-2.625,0.66-17.545,18.03-2.483-0.58,15.434c18.61-4.269,27.29-6.909,41.75-13.1l1.39,7.289,21.25-2.927c-3.71-17.205-7.44-30.471-11.28-40.571l-19.32,2.66a144.436,144.436,0,0,1,4.12,16.493c-5.2,2.029-6.11,2.285-10.13,3.626l7.83-34.543,28.85-3.973,0.73-19.26-59.5,8.2-0.73,19.26,10.3-1.419-8.31,36.971-5.3,1.254,0.47-12.4-18.93,2.608,0.22-5.8,5.15-.709c9.52-1.049,12.88-5.186,13.17-16.513l1.37-36.145-17.78,2.448,0.18-4.749,19.58-2.7,0.57-15.3-19.57,2.7,0.35-9.234-19.06,2.625-0.35,9.235-19.58,2.7-0.57,15.3,19.57-2.7-0.18,4.749-16.74,2.306-1.92,50.919,16.74-2.306-0.21,5.8-19.58,2.7Zm24.85-40.692-4.37.6,0.22-5.936,4.38-.6Zm-3.72-16.81,0.16-4.221,4.38-.6-0.16,4.222Zm15.44,15.2,0.23-5.937,4.89-.674-0.22,5.937Zm0.66-17.413,0.16-4.222,4.89-.674-0.16,4.222Zm30.15-45.36-0.67,17.809,52.42-7.219,0.67-17.809Zm66.18,25.4,11.33-1.561-0.76,20.051c-5.43,1.273-6.2,1.379-11.11,2.449l-0.74,19.656a108.552,108.552,0,0,0,11.15-3.373l-0.84,22.294-9.79,1.348-0.7,18.732,13-1.791c10.82-1.358,17.09-8,16.95-17.951l1.09-29.021,9.11-3.616,0.71-19-9.09,3.352,0.59-15.83,9.02-1.242,0.69-18.2-9.02,1.242,0.83-22.162-19.57,2.7-0.84,22.162-11.33,1.56Zm38.54,44.822,26.4-3.636c-6,6.207-11.49,9.195-26.05,14.611l-0.69,18.336c15.88-3.105,31.11-12.813,40.16-25.347,8.87,9.54,25.93,15.72,39.2,13.894l0.69-18.469c-11.79.181-20.29-2.192-25.11-6.909l26.92-3.707,0.66-17.413-6.31.869,1.75-46.7-14.16,1.951,7.8-9.735,0.5-13.324-29.75,4.1,2.36-4.918-21.51,2.962c-4.09,10.012-9.23,17.15-18.1,24.8l-0.93,24.8,4.78-4.6-1.13,30.077-6.83.94Zm24.09-20.641,0.18-4.617c11.12-6.256,15.11-13.5,16.35-29.417l2.83-.39-0.49,13.191c-0.39,6.878.56,8.846,5.51,10.133l-16.87,2.324-0.29,7.783Zm5.07-32.456c-0.85,5.63-1.85,8.26-4.3,12.141l0.44-11.608Zm-3.18-14.26,6.06-7.921,14.17-1.951-6.58,7.992Zm23.74,43.187,0.29-7.652,8.63-1.188-0.29,7.651Zm5.19-21.974,0.39-10.553,4.25-.585-0.39,10.553Z" transform="translate(-2025.97 -309.75)"/>
  <path id="な" class="cls-5" d="M2505.48,411.179l-0.45,12.108,9.93-1.369c-4.21,18.534-5.17,22.041-10.66,38.525l12.57-1.732c3.8-11.186,6.43-21.369,10.14-38.452l12.42-1.711,0.46-12.108-10.09,1.389c0.48-2.905.57-3.3,1.65-9.893l-12.65,1.742c-0.53,4.062-.82,5.867-1.65,9.893Zm41.32,20.7a15.97,15.97,0,0,0-3.9.076c-10.47,1.442-18.1,9.322-18.47,18.962-0.14,3.933.78,7.258,2.64,9.456,3.3,4,8.26,5.615,14.66,4.734,6.47-.892,11.45-3.88,14.48-8.592,1.82-2.784,2.43-5.016,2.74-9.2,3.77,1.4,5.39,2.174,10.43,5.468l0.56-14.884c-3.01-1.58-3.38-1.76-10.86-4.028l0.68-18.124,9.87-1.358,0.46-12.263-22.29,3.07Zm-5.09,11.671c3.24-.446,5.06.991,4.96,3.768a5.888,5.888,0,0,1-5.39,5.805c-3.24.446-5.42-1.248-5.31-4.1C2536.07,446.247,2538.4,444.008,2541.71,443.552Z" transform="translate(-2025.97 -309.75)"/>
  <path id="長方形_6_のコピー_2" data-name="長方形 6 のコピー 2" class="cls-6" d="M2300.41,699.333l184.95-29,1.23,7.87-184.95,29Z" transform="translate(-2025.97 -309.75)"/>
  <path id="長方形_6_のコピー_11" data-name="長方形 6 のコピー 11" class="cls-6" d="M2432.02,699.507l184.95-29,1.23,7.87-184.95,29Z" transform="translate(-2025.97 -309.75)"/>
  <path id="長方形_6_のコピー_5" data-name="長方形 6 のコピー 5" class="cls-6" d="M2225.46,338.241l185.94-21.816,0.93,7.913-185.94,21.816Z" transform="translate(-2025.97 -309.75)"/>
  <path id="長方形_6_のコピー_13" data-name="長方形 6 のコピー 13" class="cls-6" d="M2143.79,328.766l17.8-2.088,0.93,7.912-17.8,2.088Z" transform="translate(-2025.97 -309.75)"/>
  <path id="長方形_6_のコピー_14" data-name="長方形 6 のコピー 14" class="cls-6" d="M2167.53,325.981l138.46-16.245,0.93,7.912-138.47,16.246Z" transform="translate(-2025.97 -309.75)"/>
  <path id="長方形_6_のコピー_10" data-name="長方形 6 のコピー 10" class="cls-6" d="M2635.43,409.327l43.48-5.435,0.99,7.905-43.48,5.436Z" transform="translate(-2025.97 -309.75)"/>
  <path id="長方形_6_のコピー_8" data-name="長方形 6 のコピー 8" class="cls-6" d="M2580.96,401l69.17-8.648,0.99,7.9-69.17,8.648Z" transform="translate(-2025.97 -309.75)"/>
  <path id="長方形_6_のコピー_8-2" data-name="長方形 6 のコピー 8" class="cls-6" d="M2092.96,626l35.17-4.648,0.99,7.905-35.17,4.648Z" transform="translate(-2025.97 -309.75)"/>
  <path id="長方形_6_のコピー_10-2" data-name="長方形 6 のコピー 10" class="cls-6" d="M2048.43,422.327l65.48-8.435,0.99,7.905-65.48,8.436Z" transform="translate(-2025.97 -309.75)"/>
  <path id="長方形_6_のコピー_8-3" data-name="長方形 6 のコピー 8" class="cls-6" d="M2025.96,443l46.17-5.648,0.99,7.9-46.17,5.649Z" transform="translate(-2025.97 -309.75)"/>
  <path id="長方形_6_のコピー_8-4" data-name="長方形 6 のコピー 8" class="cls-6" d="M2060.96,613l46.17-5.648,0.99,7.906-46.17,5.647Z" transform="translate(-2025.97 -309.75)"/>
  <path id="長方形_6_のコピー_8-5" data-name="長方形 6 のコピー 8" class="cls-6" d="M2110.96,606l8.17-.648,0.99,7.905-8.17.648Z" transform="translate(-2025.97 -309.75)"/>
</svg>
